<?xml version="1.0" encoding="UTF-8" standalone="no"?>
<svg
   xmlns:dc="http://purl.org/dc/elements/1.1/"
   xmlns:cc="http://creativecommons.org/ns#"
   xmlns:rdf="http://www.w3.org/1999/02/22-rdf-syntax-ns#"
   xmlns:svg="http://www.w3.org/2000/svg"
   xmlns="http://www.w3.org/2000/svg"
   xmlns:sodipodi="http://sodipodi.sourceforge.net/DTD/sodipodi-0.dtd"
   xmlns:inkscape="http://www.inkscape.org/namespaces/inkscape"
   width="32.0px"
   height="32.0px"
   viewBox="0 0 32.0 32.0"
   version="1.1"
   id="SVGRoot"
   sodipodi:docname="VesicaStartCenter.svg"
   inkscape:version="1.0.1 (3bc2e813f5, 2020-09-07)">
  <defs
     id="defs10" />
  <sodipodi:namedview
     id="base"
     pagecolor="#ffffff"
     bordercolor="#666666"
     borderopacity="1.0"
     inkscape:pageopacity="0.0"
     inkscape:pageshadow="2"
     inkscape:zoom="22.4"
     inkscape:cx="16.335647"
     inkscape:cy="16.796627"
     inkscape:document-units="px"
     inkscape:current-layer="layer1"
     inkscape:document-rotation="0"
     showgrid="true"
     inkscape:snap-object-midpoints="true"
     inkscape:snap-global="false">
    <inkscape:grid
       type="xygrid"
       id="grid19" />
  </sodipodi:namedview>
  <metadata
     id="metadata13">
    <rdf:RDF>
      <cc:Work
         rdf:about="">
        <dc:format>image/svg+xml</dc:format>
        <dc:type
           rdf:resource="http://purl.org/dc/dcmitype/StillImage" />
        <dc:title></dc:title>
      </cc:Work>
    </rdf:RDF>
  </metadata>
  <g
     inkscape:label="Layer 1"
     inkscape:groupmode="layer"
     id="layer1">
    <path
       id="path40-4"
       style="fill:none;fill-rule:evenodd;stroke:#999999;stroke-width:1.5;stroke-miterlimit:4;stroke-dasharray:none;stroke-opacity:1"
       d="m 57.809819,9.9117652 a 10,10 0 0 0 -8.457276,11.3191538 10,10 0 0 0 11.321656,8.474675 10,10 0 0 0 4.08071,-1.549792 2.2660195,2.2660195 0 0 1 -0.588377,-1.223628 2.2660195,2.2660195 0 0 1 1.921976,-2.565341 2.2660195,2.2660195 0 0 1 1.782057,0.509325 10,10 0 0 0 1.278309,-6.49222 10,10 0 0 0 -11.321656,-8.474675 10,10 0 0 0 -0.0174,0.0025 z" />
    <circle
       style="fill:none;stroke:#cccccc;stroke-width:1.5;stroke-miterlimit:4;stroke-dasharray:none;stroke-opacity:1"
       id="path876"
       cx="19.250999"
       cy="19.806999"
       r="10" />
    <path
       style="fill:#999999;fill-opacity:1;fill-rule:evenodd;stroke:#cccccc;stroke-width:1;stroke-miterlimit:4;stroke-dasharray:none;stroke-opacity:1"
       d="m 18.193837,15.850757 a 2.3607213,2.3607213 0 0 1 -1.973151,2.69308 2.3607213,2.3607213 0 0 1 -2.693081,-1.973152 2.3607213,2.3607213 0 0 1 1.973152,-2.69308 2.3607213,2.3607213 0 0 1 2.69308,1.973152 z"
       id="path40-2-0" />
    <path
       id="path40-4-6"
       style="fill:none;fill-rule:evenodd;stroke:#cccccc;stroke-width:1.5;stroke-miterlimit:4;stroke-dasharray:none;stroke-opacity:1"
       d="M 13.70382,22.670662 A -10,-10 0 0 0 22.161096,11.351509 -10,-10 0 0 0 10.83944,2.876834 -10,-10 0 0 0 6.7587302,4.426626 -2.2660195,-2.2660195 0 0 1 7.3471072,5.650254 -2.2660195,-2.2660195 0 0 1 5.4251315,8.215595 -2.2660195,-2.2660195 0 0 1 3.6430745,7.70627 a -10,-10 0 0 0 -1.278309,6.492219 -10,-10 0 0 0 11.3216555,8.474676 -10,-10 0 0 0 0.0174,-0.0025 z" />
    <circle
       style="fill:#999999;fill-opacity:1;fill-rule:evenodd;stroke:#cccccc;stroke-width:1;stroke-miterlimit:4;stroke-dasharray:none;stroke-opacity:1"
       id="path40-2-4-0"
       cx="-4.3269119"
       cy="-6.7987199"
       r="2.3607213"
       transform="rotate(171.8162)" />
  </g>
</svg>
